<svg xmlns="http://www.w3.org/2000/svg" xmlns:xlink="http://www.w3.org/1999/xlink" width="1367" height="883" viewBox="0 0 1367 883">
  <defs>
    <clipPath id="clip-path">
      <rect id="Rectangle_106" data-name="Rectangle 106" width="1367" height="883" transform="translate(2645 -12676)" fill="#fff"/>
    </clipPath>
    <linearGradient id="linear-gradient" x1="0.522" y1="0.442" x2="-1.164" y2="1.91" gradientUnits="objectBoundingBox">
      <stop offset="0" stop-color="#21186b"/>
      <stop offset="1" stop-color="#00ebdf"/>
    </linearGradient>
    <clipPath id="clip-path-2">
      <rect id="Rectangle_7" data-name="Rectangle 7" width="1367" height="883" fill="#21186b"/>
    </clipPath>
  </defs>
  <g id="Mask_Group_17" data-name="Mask Group 17" transform="translate(-2645 12676)" clip-path="url(#clip-path)">
    <g id="Group_551" data-name="Group 551" transform="translate(2645 -12676)">
      <path id="Path_2157" data-name="Path 2157" d="M0,0H1359.976V883.134H0Z" transform="translate(3.4)" fill="url(#linear-gradient)"/>
      <g id="Mask_Group_1" data-name="Mask Group 1" transform="translate(0)" opacity="0.1" clip-path="url(#clip-path-2)">
        <g id="Group_100" data-name="Group 100" transform="translate(2.965 -96.945)">
          <path id="Path_148" data-name="Path 148" d="M0,398.34l617.2-376.5a33.723,33.723,0,0,1,31.961,0L813.5,122.1c4.2,2.564,6.51,5.944,6.51,9.587s-2.268,6.974-6.51,9.587l-140.8,85.9a33.659,33.659,0,0,1-31.961,0l-17.557-10.689c-4.2-2.564-6.51-5.968-6.51-9.587s2.268-6.974,6.51-9.587l83.929-51.265c4.537-2.684,6.805-6.3,6.805-10.162s-2.45-7.454-6.805-10.162l-23.092-14.093a34.415,34.415,0,0,0-32.642,0L463.676,226.137c-4.423,2.684-6.805,6.3-6.805,10.162s2.427,7.454,6.805,10.162L734.042,411.306a34.564,34.564,0,0,0,32.664,0l395.4-241.2a33.766,33.766,0,0,1,31.984,0l166.929,101.836v-.815L1194.428,169.479a34.564,34.564,0,0,0-32.664,0l-395.4,241.2a33.638,33.638,0,0,1-31.984,0L464.129,245.814c-4.219-2.564-6.533-5.944-6.533-9.587s2.268-6.974,6.51-9.587L651.813,112.126a33.723,33.723,0,0,1,31.961,0l23.092,14.093c4.2,2.564,6.533,5.944,6.533,9.587s-2.268,6.974-6.533,9.587l-84.02,51.218c-4.423,2.684-6.805,6.3-6.805,10.162s2.427,7.454,6.805,10.162L640.4,227.623a34.287,34.287,0,0,0,32.642,0l140.8-85.874c4.537-2.708,6.805-6.3,6.805-10.162s-2.427-7.478-6.805-10.162L649.5,21.219a34.415,34.415,0,0,0-32.642,0L0,397.5Z" transform="translate(0 23.887)" fill="#90e0fe"/>
          <path id="Path_149" data-name="Path 149" d="M947.417,393.958,909.989,416.8a33.723,33.723,0,0,1-31.961,0L766.311,348.661a34.564,34.564,0,0,0-32.664,0L326.09,597.27h1.361L734.009,349.284a33.6,33.6,0,0,1,31.961,0l111.717,68.234a34.415,34.415,0,0,0,32.642,0L947.417,394.8Z" transform="translate(413.6 481.246)" fill="#90e0fe"/>
          <path id="Path_150" data-name="Path 150" d="M302.509,429.457a34.564,34.564,0,0,0,32.664,0L574.281,283.594a33.723,33.723,0,0,1,31.961,0L909.068,468.331c4.2,2.565,6.51,5.944,6.51,9.587s-2.268,6.974-6.51,9.587L654.717,642.572a33.723,33.723,0,0,1-31.961,0L588.594,621.72c-4.2-2.565-6.533-5.944-6.533-9.587s2.268-6.974,6.533-9.587L765.39,494.7c4.423-2.708,6.805-6.3,6.805-10.162s-2.427-7.478-6.805-10.162L602.431,374.956a34.415,34.415,0,0,0-32.642,0L389.3,485.06l.34.623,180.493-110.1a33.723,33.723,0,0,1,31.961,0L765.05,474.97c4.2,2.588,6.51,5.968,6.51,9.587s-2.268,6.974-6.51,9.587L588.254,602c-4.423,2.684-6.805,6.3-6.805,10.162s2.45,7.478,6.805,10.162l34.162,20.851a34.415,34.415,0,0,0,32.642,0L909.409,488.008c4.423-2.708,6.805-6.3,6.805-10.162s-2.427-7.478-6.805-10.162L606.582,282.946a34.415,34.415,0,0,0-32.642,0L334.833,428.834a33.766,33.766,0,0,1-31.984,0L0,244v.815Z" transform="translate(0 340.796)" fill="#90e0fe"/>
          <path id="Path_151" data-name="Path 151" d="M1152.327,253.589l122.786-74.9a33.722,33.722,0,0,1,31.961,0l53.942,32.979v-.839L1307.3,178.069a34.414,34.414,0,0,0-32.642,0l-122.786,74.9c-4.423,2.708-6.805,6.327-6.805,10.162s2.45,7.478,6.805,10.186l118.635,72.356c4.2,2.565,6.51,5.968,6.51,9.587s-2.268,7-6.51,9.587L1043.854,503.086a33.6,33.6,0,0,1-31.961,0l-524.4-319.96a34.564,34.564,0,0,0-32.664,0L206.035,334.909a33.766,33.766,0,0,1-31.984,0L0,228.735v.815L173.711,335.532a34.564,34.564,0,0,0,32.664,0L455.169,183.653a33.766,33.766,0,0,1,31.984,0l524.4,319.984a34.415,34.415,0,0,0,32.642,0L1270.849,365.4c4.537-2.708,6.805-6.327,6.805-10.186s-2.427-7.454-6.805-10.162l-118.522-72.356c-4.219-2.565-6.533-5.968-6.533-9.587S1147.995,256.153,1152.327,253.589Z" transform="translate(0 242.96)" fill="#90e0fe"/>
          <path id="Path_152" data-name="Path 152" d="M629.2,673.668,0,289.86v.815L627.814,673.668Z" transform="translate(0 404.848)" fill="#90e0fe"/>
          <path id="Path_153" data-name="Path 153" d="M17.845,100.662,182.8,0h-1.293l-164,100.014c-4.423,2.684-6.805,6.3-6.805,10.162s2.45,7.478,6.805,10.162l117.252,71.518a34.287,34.287,0,0,0,32.642,0L481.929,0h-1.361L167.058,191.233a33.6,33.6,0,0,1-31.961,0l-117.252-71.4c-4.2-2.684-6.465-6.064-6.465-9.587S13.649,103.2,17.845,100.662Z" transform="translate(13.571)" fill="#90e0fe"/>
          <path id="Path_154" data-name="Path 154" d="M336.1,484.488a34.564,34.564,0,0,0-32.664,0l-61.858,37.8a33.6,33.6,0,0,1-31.961,0L0,394.42v.839L209.279,522.835a34.286,34.286,0,0,0,32.642,0l61.858-37.724a33.766,33.766,0,0,1,31.984,0l69.571,42.517h1.361Z" transform="translate(0 550.887)" fill="#90e0fe"/>
          <path id="Path_155" data-name="Path 155" d="M573.606,434.89a34.564,34.564,0,0,0-32.664,0L472.21,476.833h1.361l67.711-41.319a33.766,33.766,0,0,1,31.984,0l67.711,41.319h1.361Z" transform="translate(598.933 601.683)" fill="#90e0fe"/>
          <path id="Path_156" data-name="Path 156" d="M70.614,376.726c0-3.859-2.45-7.454-6.805-10.162L0,327.69v.743l63.514,38.659c4.2,2.565,6.533,5.968,6.533,9.587s-2.268,7-6.533,9.587L0,424.948v.839l63.741-38.874C68.164,384.2,70.614,380.585,70.614,376.726Z" transform="translate(0 457.686)" fill="#90e0fe"/>
          <path id="Path_157" data-name="Path 157" d="M455.82,0,782.872,199.5v-.815L457.181,0Z" transform="translate(578.144)" fill="#90e0fe"/>
          <path id="Path_158" data-name="Path 158" d="M643.842,113.148,458.335,0h-1.361L643.5,113.771c4.2,2.564,6.51,5.968,6.51,9.587s-2.268,6.974-6.51,9.587L318.06,331.392l.34.623L643.842,133.5c4.423-2.708,6.805-6.327,6.805-10.162S648.265,115.857,643.842,113.148Z" transform="translate(403.415)" fill="#90e0fe"/>
          <path id="Path_159" data-name="Path 159" d="M808.958,428.21a31.931,31.931,0,0,1-16.332-4.122l-451-275.117a33.723,33.723,0,0,0-31.961,0L49.783,307.512c-4.2,2.565-6.51,5.944-6.51,9.587s2.268,6.974,6.51,9.587L77,343.294a33.6,33.6,0,0,0,31.961,0L337.933,203.639l.34.623L109.327,343.822a34.287,34.287,0,0,1-32.642,0l-27.22-16.609c-4.423-2.684-6.805-6.3-6.805-10.162s2.427-7.478,6.805-10.162L309.351,148.347a34.414,34.414,0,0,1,32.642,0L792.966,423.464a33.7,33.7,0,0,0,31.984,0L1201.157,194.1c4.2-2.564,6.51-5.968,6.51-9.587s-2.268-7-6.51-9.587l-108.473-66.173.34-.623L1201.5,174.3c4.537,2.708,6.805,6.327,6.805,10.186s-2.427,7.454-6.805,10.162L825.29,424.183a31.811,31.811,0,0,1-16.332,4.026Z" transform="translate(54.108 151.025)" fill="#90e0fe"/>
        </g>
      </g>
    </g>
  </g>
</svg>
