<svg xmlns="http://www.w3.org/2000/svg" width="9.411" height="17.407" viewBox="0 0 9.411 17.407" fill="red">
  <g id="facebook-logo" transform="translate(-22.077)">
    <path id="Path_3848" data-name="Path 3848" d="M31.133,0,28.876,0A3.964,3.964,0,0,0,24.7,4.284V6.259h-2.27a.355.355,0,0,0-.355.355V9.476a.355.355,0,0,0,.355.355H24.7v7.221a.355.355,0,0,0,.355.355h2.961a.355.355,0,0,0,.355-.355V9.831h2.654a.355.355,0,0,0,.355-.355V6.614a.355.355,0,0,0-.355-.355H28.372V4.585c0-.8.192-1.213,1.24-1.213h1.521a.355.355,0,0,0,.355-.355V.359A.355.355,0,0,0,31.133,0Z" transform="translate(0)"/>
  </g>
</svg>
