<svg xmlns="http://www.w3.org/2000/svg" width="14.591" height="14.593" viewBox="0 0 14.591 14.593" fill="red">
  <g id="instagram" transform="translate(-0.449)">
    <path id="Path_3849" data-name="Path 3849" d="M15,4.291a5.332,5.332,0,0,0-.339-1.77A3.738,3.738,0,0,0,12.528.385a5.346,5.346,0,0,0-1.77-.339C9.976.009,9.728,0,7.747,0S5.517.009,4.739.043a5.334,5.334,0,0,0-1.77.339,3.561,3.561,0,0,0-1.294.844A3.593,3.593,0,0,0,.833,2.517a5.347,5.347,0,0,0-.339,1.77C.457,5.069.449,5.317.449,7.3s.009,2.229.043,3.008a5.332,5.332,0,0,0,.339,1.77,3.738,3.738,0,0,0,2.135,2.135,5.347,5.347,0,0,0,1.77.339c.778.034,1.026.043,3.008.043s2.229-.008,3.008-.043a5.331,5.331,0,0,0,1.77-.339,3.733,3.733,0,0,0,2.135-2.135A5.35,5.35,0,0,0,15,10.306c.034-.778.043-1.026.043-3.008s0-2.229-.037-3.008Zm-1.314,5.958a4,4,0,0,1-.251,1.354,2.421,2.421,0,0,1-1.386,1.386,4.014,4.014,0,0,1-1.354.251c-.77.034-1,.043-2.948.043s-2.181-.008-2.948-.043a4,4,0,0,1-1.354-.251,2.246,2.246,0,0,1-.838-.545,2.269,2.269,0,0,1-.545-.838,4.015,4.015,0,0,1-.251-1.354c-.034-.77-.043-1-.043-2.948s.008-2.181.043-2.948A4,4,0,0,1,2.065,3a2.218,2.218,0,0,1,.547-.838,2.265,2.265,0,0,1,.838-.544A4.017,4.017,0,0,1,4.8,1.368c.77-.034,1-.043,2.948-.043s2.181.009,2.948.043a4,4,0,0,1,1.354.251,2.244,2.244,0,0,1,.838.544A2.268,2.268,0,0,1,13.437,3a4.016,4.016,0,0,1,.251,1.354c.034.77.043,1,.043,2.948s-.009,2.175-.043,2.945Zm0,0"/>
    <path id="Path_3850" data-name="Path 3850" d="M128.7,124.5a3.749,3.749,0,1,0,3.749,3.749A3.75,3.75,0,0,0,128.7,124.5Zm0,6.181a2.432,2.432,0,1,1,2.432-2.432,2.432,2.432,0,0,1-2.432,2.432Zm0,0" transform="translate(-120.951 -120.951)"/>
    <path id="Path_3851" data-name="Path 3851" d="M364.2,89.477a.875.875,0,1,1-.875-.875A.875.875,0,0,1,364.2,89.477Zm0,0" transform="translate(-351.681 -86.076)"/>
  </g>
</svg>
