<svg xmlns="http://www.w3.org/2000/svg" width="12.041" height="9.784" viewBox="0 0 12.041 9.784" fill="red">
  <path id="twitter" d="M10.8,4.69a4.928,4.928,0,0,0,1.237-1.281h0a5.156,5.156,0,0,1-1.422.39,2.455,2.455,0,0,0,1.086-1.364,4.939,4.939,0,0,1-1.565.6A2.468,2.468,0,0,0,5.87,4.719a2.542,2.542,0,0,0,.057.563A6.989,6.989,0,0,1,.838,2.7,2.469,2.469,0,0,0,1.6,6a2.44,2.44,0,0,1-1.115-.3v.027A2.48,2.48,0,0,0,2.459,8.148a2.455,2.455,0,0,1-.647.081,2.179,2.179,0,0,1-.467-.042,2.493,2.493,0,0,0,2.306,1.72A4.962,4.962,0,0,1,.591,10.959,4.669,4.669,0,0,1,0,10.926a6.952,6.952,0,0,0,3.787,1.108A6.978,6.978,0,0,0,10.8,4.69Z" transform="translate(0 -2.25)"/>
</svg>
